<svg xmlns="http://www.w3.org/2000/svg" width="16" height="16">
  <path fill="none" stroke="#767676" d="M11.99675 1.22485c-.148 0-.2985.00869318-.449.0260795-.57.0669887-1.144.2623295-1.704.5809095-.615.34875-1.205.828921-1.844 1.501361-.64-.67295-1.229-1.152611-1.8435-1.501873-.56-.318068-1.134-.5134088-1.705-.5803975-.14873-.0173081-.29831-.02601514-.448-.0260795-.9415 0-3.628.786988-3.628 4.2842 0 4.02035 6.119 8.3526 7.3465 9.18.16853.1148.38797.1148.5565 0 1.227-.8274 7.3465-5.15965 7.3465-9.18 0-3.497723-2.687-4.2842-3.628-4.2842z"/>
</svg>
