<svg xmlns="http://www.w3.org/2000/svg" width="16" height="16" xmlns:xlink="http://www.w3.org/1999/xlink">
  <use fill="#767676" xlink:href="#a"/>
  <defs>
    <path id="a" fill-rule="evenodd" d="M5.51709 3.00269c-.10498.07666-.23242.11663-.36719.11663-.11914.00068-.23291-.03143-.3291-.08996-.04883-.02985-.09326-.06653-.13135-.10938-.09765-.10968-.14306-.25085-.12597-.39166.01757-.14081.0957-.26929.21777-.35632L7.63232.112c.01612-.009705.0337-.0179448.05176-.0246587L7.7334.0653687l.04443-.0233765.00733-.0046387C7.85352.0126343 7.92676 0 8 0c.07666-.00030518.15186.0137329.22217.0413208l.03613.0200195.00879.0040284.04932.0219726c.01806.0067139.03515.0150147.05127.0246587l2.85062 2.06c.1215.0874.1992.21563.2163.35608.0102.08349-.0015.16717-.0327.24438-.0215.05267-.0523.1023-.0918.14685-.1123.12738-.2818.20099-.4605.20001-.1333.00074-.2622-.04046-.3667-.11663L9.02148 1.94666l-.43212-.31202V10.828c0 .2927-.26465.532-.58936.532s-.58887-.2393-.58887-.5327V1.63403l-.43261.31263-1.46143 1.05603zm7.61381 2.66265h2.2802c.3223-.00146.5855.23627.5889.53199V15.468c0 .2934-.2646.532-.5889.532H.588867C.264648 16 0 15.7614 0 15.468V6.19733c.00341797-.29572.266602-.53345.588867-.53199H3.43945c.32227-.00146.58594.23627.58887.53199 0 .29333-.26465.53271-.58887.53271H1.17822v8.20536H14.8218V6.72937h-1.6909c-.3252 0-.5889-.23871-.5889-.53204.0029-.29572.2661-.53345.5889-.53199z"/>
  </defs>
</svg>
