<?xml version="1.0" encoding="UTF-8"?>
<svg width="30px" height="32px" viewBox="0 0 30 32" version="1.1" xmlns="http://www.w3.org/2000/svg" xmlns:xlink="http://www.w3.org/1999/xlink">
    <!-- Generator: Sketch 42 (36781) - http://www.bohemiancoding.com/sketch -->
    <title>path0_fill</title>
    <desc>Created with Sketch.</desc>
    <defs></defs>
    <g id="Page-1" stroke="none" stroke-width="1" fill="none" fill-rule="evenodd">
        <g id="logo" fill-rule="nonzero" fill="#767676">
            <g id="Canvas">
                <g id="Shape">
                    <g id="path0_fill-link" transform="translate(0.030000, 0.011000)">
                        <path d="M28.0994,19.8958 C28.6292,20.9907 29.053,21.9091 29.3002,22.6861 C31.1016,27.6345 27.3929,31.9824 22.9037,31.9788 C22.8684,31.9788 22.7272,31.9788 22.5505,31.9435 L22.056,31.9435 C19.7249,31.6609 17.3196,30.174 14.8826,27.525 C12.4454,30.1775 10.0402,31.6609 7.70898,31.9435 L7.21448,31.9435 C7.03796,31.9788 6.89661,31.9788 6.86133,31.9788 C2.37219,31.9788 -1.33643,27.6345 0.464844,22.6861 C0.500244,22.5801 0.641479,22.2269 0.924072,21.5558 L1.66577,19.9312 L1.66577,19.8605 C4.17346,14.5236 6.50818,9.72009 8.73328,5.40753 L8.83923,5.19556 C10.2521,2.2605 11.6331,0 14.8826,0 C18.1708,0 19.301,1.94617 20.8905,5.19556 L21.0317,5.40753 C23.257,9.72009 25.5916,14.5236 28.0994,19.8605 L28.0994,19.8958 Z M27.6755,25.8685 C27.7815,25.0208 27.7108,24.2084 27.3859,23.3925 L26.962,22.3682 L26.2556,20.7435 L26.2203,20.7082 C24.2777,16.4662 21.9077,11.6627 19.1881,6.32587 L19.0822,6.11395 L18.3403,4.66583 L18.1501,4.34784 L18.149,4.34589 C17.9202,3.96259 17.7308,3.64539 17.5634,3.39429 C17.1395,2.79382 16.1505,2.05212 14.879,2.05212 C14.2433,2.05212 13.6781,2.19342 13.219,2.47595 C12.2998,3.05469 12.0369,3.53497 11.4814,4.54938 L11.4176,4.66583 L10.6406,6.14923 L10.5699,6.32587 C7.85034,11.6627 5.48035,16.4662 3.53772,20.7082 L3.50244,20.7788 C2.90198,22.0857 2.54883,22.9333 2.37219,23.3925 C1.10071,26.9634 3.89441,30.4247 7.46179,29.895 C8.23889,29.8243 9.05115,29.5417 9.89893,29.0826 C10.9938,28.4468 12.23,27.4225 13.5369,25.9744 C11.453,23.3254 10.1461,20.9554 9.65161,18.8715 C8.80396,15.0181 10.962,11.6981 14.8826,11.6981 C16.8287,11.6981 18.3474,12.4398 19.4071,13.9585 C21.2119,16.6111 20.4348,20.7082 16.2283,25.9744 C18.7712,28.8 21.7417,30.8839 24.7439,29.5771 C26.298,28.906 27.4282,27.5285 27.6755,25.8685 Z M14.8826,24.3497 C16.6486,22.121 17.7081,20.1431 18.0967,18.4124 C18.4498,17.0349 18.3086,15.9399 17.7081,15.1276 C17.0724,14.174 16.1188,13.7148 14.8826,13.7148 C13.6464,13.7148 12.6926,14.174 12.0569,15.1276 C11.4564,15.9399 11.3152,17.0349 11.6683,18.4124 C12.0216,20.1077 13.0812,22.0892 14.8826,24.3497 Z" id="path0_fill"></path>
                    </g>
                </g>
            </g>
        </g>
    </g>
</svg>